<svg width="17" height="17" viewBox="0 0 17 17" fill="none" xmlns="http://www.w3.org/2000/svg">
<path fill-rule="evenodd" clip-rule="evenodd" d="M6.33594 14.252C6.33594 15.5636 5.27261 16.627 3.96094 16.627C2.64926 16.627 1.58594 15.5636 1.58594 14.252C1.58594 12.9403 2.64926 11.877 3.96094 11.877C5.27261 11.877 6.33594 12.9403 6.33594 14.252ZM4.7526 14.252C4.7526 14.6892 4.39816 15.0436 3.96094 15.0436C3.52371 15.0436 3.16927 14.6892 3.16927 14.252C3.16927 13.8147 3.52371 13.4603 3.96094 13.4603C4.39816 13.4603 4.7526 13.8147 4.7526 14.252Z" fill="#545454"/>
<path fill-rule="evenodd" clip-rule="evenodd" d="M14.2526 14.252C14.2526 15.5636 13.1893 16.627 11.8776 16.627C10.5659 16.627 9.5026 15.5636 9.5026 14.252C9.5026 12.9403 10.5659 11.877 11.8776 11.877C13.1893 11.877 14.2526 12.9403 14.2526 14.252ZM12.6693 14.252C12.6693 14.6892 12.3148 15.0436 11.8776 15.0436C11.4404 15.0436 11.0859 14.6892 11.0859 14.252C11.0859 13.8147 11.4404 13.4603 11.8776 13.4603C12.3148 13.4603 12.6693 13.8147 12.6693 14.252Z" fill="#545454"/>
<path fill-rule="evenodd" clip-rule="evenodd" d="M0.0837519 0.437796C0.279285 0.0467297 0.754818 -0.111781 1.14588 0.0837519L1.94033 0.480974C2.676 0.848808 3.16898 1.57109 3.24344 2.39022L3.28132 2.80684C3.29985 3.01073 3.4708 3.16684 3.67552 3.16684H14.1199C15.5018 3.16684 16.4583 4.54706 15.9731 5.84094L14.585 9.54243C14.2374 10.4694 13.3513 11.0835 12.3613 11.0835H4.61276C3.38441 11.0835 2.35873 10.1468 2.24752 8.92353L1.66661 2.53356C1.64179 2.26052 1.47746 2.01976 1.23224 1.89715L0.437796 1.49993C0.0467297 1.3044 -0.111781 0.828862 0.0837519 0.437796ZM3.89143 4.75017C3.65867 4.75017 3.47615 4.95004 3.49723 5.18184L3.82435 8.78018C3.86142 9.18795 4.20331 9.50017 4.61276 9.50017H12.3613C12.6913 9.50017 12.9866 9.29547 13.1025 8.98648L14.4906 5.28499C14.5876 5.02622 14.3963 4.75017 14.1199 4.75017H3.89143Z" fill="#545454"/>
</svg>
