<svg width="20" height="16" xmlns="http://www.w3.org/2000/svg" xmlns:xlink="http://www.w3.org/1999/xlink" xml:space="preserve" overflow="hidden"><g><path d="M10.6295 3.52275C10.2777 3.85668 9.7223 3.85668 9.37055 3.52275L8.74109 2.92517C8.00434 2.22574 7.00903 1.79867 5.90909 1.79867 3.64974 1.79867 1.81818 3.61057 1.81818 5.84567 1.81818 7.98845 2.99071 9.75782 4.68342 11.2116 6.37756 12.6666 8.40309 13.6316 9.61331 14.1241 9.86636 14.2271 10.1336 14.2271 10.3867 14.1241 11.5969 13.6316 13.6224 12.6666 15.3166 11.2116 17.0093 9.75782 18.1818 7.98845 18.1818 5.84567 18.1818 3.61057 16.3503 1.79867 14.0909 1.79867 12.991 1.79867 11.9957 2.22574 11.2589 2.92517L10.6295 3.52275ZM10 1.62741C8.93828 0.619465 7.49681 0 5.90909 0 2.64559 0 0 2.6172 0 5.84567 0 11.5729 6.33668 14.7356 8.92163 15.7875 9.61779 16.0708 10.3822 16.0708 11.0784 15.7875 13.6633 14.7356 20 11.5729 20 5.84567 20 2.6172 17.3544 0 14.0909 0 12.5032 0 11.0617 0.619465 10 1.62741Z" fill="#FF0000" fill-rule="evenodd"/></g></svg>